<svg xmlns="http://www.w3.org/2000/svg" viewBox="0 0 501.05 1239.41"><defs><style>.cls-1{fill:#231815;}.cls-2{fill:none;}</style></defs><path class="cls-1" d="M213.18,241c4.1,2.06,8.71,2.23,14.53-.34,28.54-12.64,57.43-37.43,76.57-57.43,3.42-3.59,8.72.34,6,4.44-14.53,21.71-43.25,47-74.87,64.27-5.64,3.08-10.43,6-14.87,6-8,0-19.15-9.58-20.69-19-.51-3.07,1.71-4.61,4.1-3.24S210.78,239.82,213.18,241Zm-5.65-74.86c12.65,2,23.42,8.54,29.24,15.72,4.78,5.81,5.29,14.87,0,17.1-4.11,1.71-7.36.51-13.68-7.7-5.13-6.66-11.28-12.47-18.8-18.8C200.36,169.22,202.24,165.29,207.53,166.15Z"/><path class="cls-1" d="M216.36,397.34c-4.48,0-7.33-3.85-8.46-11.44-.73-5.2-.9-13.39-1.09-22.06-.2-9.68-.41-19.69-1.46-25.56-2.07-11.47-6.21-16.16-10.6-21.13-1.06-1.19-2.13-2.4-3.19-3.72s-1.36-2.64-.87-3.66a2.87,2.87,0,0,1,2.79-1.41,6.82,6.82,0,0,1,1.44.16,41.55,41.55,0,0,1,14.77,6.42l.94.66,1,.71.08.05h.11c1.24,0,2.56.06,3.92.06,13,0,33.77-1.78,60-5.16a18.56,18.56,0,0,0,6.67-2.26,9.65,9.65,0,0,1,4.65-1.46c7.44,0,19.42,9.44,19.42,15.31,0,2.4-1.07,4.05-2.56,6.34a34.39,34.39,0,0,0-4.87,10.22l-.81,2.73c-2.19,7.45-5.2,17.64-9.17,28l-.12.32.31.14c3.39,1.51,5.66,4.29,5.66,6.92,0,3.57-2.42,5.71-6.49,5.71-1.38,0-3-.08-5-.19-3.42-.17-8.1-.4-14.75-.4-13.44,0-35.79,1.17-46.66,2l-.34,0v2.3c.14,4.74-.49,7.64-2,9.16A4.43,4.43,0,0,1,216.36,397.34Zm1.8-72.42a38.72,38.72,0,0,1,1.16,7.57c1,13.79,1.56,29.22,2,41.13l0,.39.38,0c12.4-1.17,39.73-3.66,54.46-4.7l.24,0,.08-.23c5.05-14.77,8.59-31.17,9.23-42.81a4.51,4.51,0,0,0-1-3.52,5.35,5.35,0,0,0-4.06-1.38H280c-10.25.53-22,2.23-32.33,3.73-8.7,1.26-16.22,2.35-20.36,2.35-2.51,0-5.64-1.4-8.65-2.9l-.73-.37Z"/><path class="cls-1" d="M216.36,118.85c-4.48,0-7.33-3.85-8.46-11.45-.73-5.19-.9-13.39-1.09-22.06-.2-9.68-.41-19.69-1.46-25.56-2.07-11.47-6.21-16.16-10.6-21.12-1.06-1.19-2.13-2.4-3.19-3.73s-1.36-2.64-.87-3.66a2.89,2.89,0,0,1,2.79-1.41,6.87,6.87,0,0,1,1.44.17,41.47,41.47,0,0,1,14.77,6.41l.94.66c.36.25.71.51,1,.71l.08.06h.11c1.24,0,2.56.06,3.92.06,13,0,33.77-1.78,60-5.15a19,19,0,0,0,6.67-2.26,9.54,9.54,0,0,1,4.65-1.46c7.44,0,19.42,9.44,19.42,15.3,0,2.41-1.07,4.06-2.56,6.34a34.51,34.51,0,0,0-4.87,10.22l-.81,2.74c-2.19,7.44-5.2,17.63-9.17,28L289,92l.31.15C292.68,93.62,295,96.4,295,99c0,3.58-2.42,5.71-6.49,5.71-1.38,0-3-.08-5-.18-3.42-.17-8.1-.41-14.75-.41-13.44,0-35.79,1.17-46.66,2l-.34,0v2.3c.14,4.73-.49,7.64-2,9.15A4.4,4.4,0,0,1,216.36,118.85Zm1.8-72.43A38.72,38.72,0,0,1,219.32,54c1,13.79,1.56,29.23,2,41.14l0,.38.38,0c12.4-1.18,39.73-3.67,54.46-4.71h.24l.08-.23c5.05-14.78,8.59-31.18,9.23-42.81a4.53,4.53,0,0,0-1-3.53,5.35,5.35,0,0,0-4.06-1.38H280c-10.25.53-22,2.23-32.33,3.73-8.7,1.26-16.22,2.35-20.36,2.35-2.51,0-5.64-1.39-8.65-2.9l-.73-.37Z"/><path class="cls-1" d="M234.68,447.57a13.81,13.81,0,1,1,13.81,13.81A13.85,13.85,0,0,1,234.68,447.57Z"/><path class="cls-1" d="M222.25,584.65C220.69,600.19,204.81,615,193.07,615a6.27,6.27,0,0,1-6.22-6.56c0-6,7.77-6.91,15.19-11.4,7.6-4.66,11.23-9.49,14.68-14.5A3,3,0,0,1,222.25,584.65Zm31.07-26.59c0,31.43.7,51.8.7,57.84,0,8.46-5.88,14.34-10.36,14.34-3.63,0-5-2.6-7.26-5.36a72.84,72.84,0,0,0-8.28-7.94c-2.59-2.07-1.39-4.66,1.38-4.49,2.59.17,6.9.69,8.8.69,1.73,0,3.28-.52,3.63-3.28.86-6.39.69-34.7.69-50.07-20.37,3.63-30.39,7.08-35.4,7.08-7.07,0-14.5-8.12-15.53-16.4-.35-2.77,2.24-4,4.48-2.42,5.18,3.63,8.64,5.87,13.3,5.87,6.21,0,22.27-2.24,33.15-4,0-6.91.17-16.92,0-20.2-.17-4.32-1.55-5.7-6-7.43-3.63-1.38-6.22-2.24-6.22-4.14,0-2.76,6.91-5.18,10.19-5.18,6.9,0,16.92,4,16.92,8.29,0,3.45-1.38,5-2.42,10.87a130,130,0,0,0-1.55,15.89c14.67-2.76,29.7-6.91,34.53-6.91,7.77,0,13.64,4,13.64,9.33,0,3.45-4,4.66-11.91,4.66C282.33,555.13,268.17,556.16,253.32,558.06Zm59.74,48.17a6.49,6.49,0,0,1-6.73,6.57c-4.83,0-7.77-5.7-15.71-13.47-6-5.87-12.09-9.67-18-14.33-2.76-2.07-1.55-5.7,2.25-5.18C290.79,581.72,313.06,592.94,313.06,606.23ZM280.26,517c-2.07-2.07-.86-4.83,2.07-4.66,11.22.86,23.31,8.46,23.31,16.57a5.76,5.76,0,0,1-5.87,6c-4,0-5.18-2.94-9.15-7.6C287.68,523.88,283.71,520.25,280.26,517Zm40.06-4.32c0,3.63-2.25,6.05-5.7,6.05-2.59,0-4.32-1.38-7.6-5-3.8-4.14-9-7.94-12.77-10.7-2.77-2.08-1.56-5,1.72-5C307,498.15,320.32,503.85,320.32,512.65Z"/><path class="cls-1" d="M313.75,720.87c0,2.76-1.89,4.66-5.18,4.66-4,0-11.56-1.21-19-1.21a288.53,288.53,0,0,0-29.18,1.9c-3.79,30.39-17.26,55.77-45.75,71.66-6.39,3.45-10.71-1.9-5.18-6.39,22.45-18.13,32.8-36.26,36.77-63.37-9.66,1.73-20,4-28,6-6.9,1.72-11.74,2.93-15.88,2.93-6.91,0-14.5-9.15-15.71-17.27-.35-3.1,2.42-4.14,4.83-2.76,4.84,2.94,9.5,6,14.33,6,8.46,0,25.56-2.6,41.44-4.67a154.29,154.29,0,0,0-.17-24.51c-.52-3.8-1.73-4.84-5.87-7.08-3.28-1.73-6.39-2.77-6.39-5.18,0-2.94,6.39-4.84,10.53-4.84,7.08,0,17.79,3.8,17.79,9.33,0,4.31-.87,9-1,12.6-.17,4.32-.17,9.84-.86,17.78,25.55-3.45,30-6,36.08-6C304.26,710.51,313.75,714.83,313.75,720.87Z"/><path class="cls-1" d="M184.71,885c3.59.85,5.64,1.54,9.23,1.54,6,0,18.29-11.46,27.69-20,6.49-5.81,10.08-9.06,15-9.06,4.27,0,8.38,1.54,15.21,6.32,23.25,16.24,43.42,30.77,55.9,40.51,7,5.47,9.4,9.58,9.4,13.16,0,4.11-2.22,6.5-6.32,6.5-6.67,0-12.31-7.18-33.34-25.64-9.4-8.2-21.19-18.63-29.91-25.13-4.27-3.24-7.86-5.29-10.43-5.29-2.39,0-4.1,1.36-8.88,6.49-5,5.47-15.22,16.75-20.35,21.2-4.95,4.27-7.69,6.15-12,6.15-6.5,0-13.33-7.86-14.87-12.48C179.92,885.54,181.63,884.34,184.71,885Zm87.69-36.24A20.08,20.08,0,1,1,292.57,869,20.17,20.17,0,0,1,272.4,848.79Zm32.81,0a12.73,12.73,0,1,0-12.64,12.82A12.62,12.62,0,0,0,305.21,848.79Z"/><path class="cls-1" d="M316.35,1018.57c0,2.93-2.42,4.48-6.57,4.48-3.79,0-8.63-.17-14.15-.17-10,0-28,1.73-39.72,3.45,5.53,3.29,7.77,7.08,7.77,9.85,0,2.59-1.72,6-3.1,9.32-6.22,14.85-19.17,37.29-47.49,50.76-5.69,2.76-9.66-2.76-4.14-6.73,20.37-14.33,37.64-35.4,39.19-51.8.35-3.45.35-5.53-4-9.5-17.61,3.11-37.12,8.46-44.2,8.46-6,0-13.46-8.46-14.67-16.05-.35-2.59,1.72-4.32,4.49-2.94,4.49,2.25,8.63,5.53,14.33,5.53,9.84,0,52.14-6.91,66.13-9.33,15.88-2.76,25.38-4.83,29.69-4.83C307.37,1009.07,316.35,1012.87,316.35,1018.57ZM213.61,985.41c-1.55-3.1.18-5.35,3.28-4.14,6.22,2.59,10,4,15.2,4,19.85,0,31.77-8.46,37.46-8.46,4.67,0,12.09,2.25,12.09,6.56,0,2.94-3.28,5.53-8.63,7.08-5.87,1.73-26.07,6.56-40.23,6.56A22,22,0,0,1,213.61,985.41Z"/><path class="cls-1" d="M282.24,1154.92c2.42,2.24,3.29,4.14,3.8,8.63,1,11.4.69,31.6-.17,42-.52,4.31-3.28,7.08-7.08,7.08-4.14,0-7.25-4.67-7.25-10.54,0-3.11,1-5.52,1.73-9.49,1.38-7.26,1.72-22.45,1-28a9.37,9.37,0,0,0-.86-2.94c-14.33,13.12-31.08,25-45.75,31.94-6.05,2.76-9.67-3.62-4.15-7.08,25.38-16.23,52-39.88,61.12-55.94,2.25-4.31,1.9-5.87-2.24-10.53-2.94-3.28-1.9-5.87,2.41-5.87,7.43,0,17.1,7.08,17.1,12.43,0,3.11-2.42,6.22-4.32,8.81a228.58,228.58,0,0,1-16.4,18.82Z"/><path class="cls-1" d="M449.62,90.28c-11,0-18.55-3.49-23.87-8.21a36.62,36.62,0,0,1-9.95,10.11l-5.17-6.31c4.18-2.5,7.75-5.47,9.88-9-3-4.33-5.09-9.65-6.69-13.53l6.69-3.19a59.59,59.59,0,0,0,3.8,9.12,44.6,44.6,0,0,0,2-13.53H413.6v-6a140.81,140.81,0,0,0,12-16.87H412.76V26.07H434v6.31s-6.91,12.16-10.79,16.56H434c0,8.44-.69,17.79-4.49,26.6,4.56,4.71,11.25,7.9,20.37,7.9l29.41-.38-2.59,7.22Zm9.19-14.89v5.77h-7.45V75.39H433.73V69.23h17.63V64.52H437.23V59.05h14.13V54.49H437.23V49h14.13V44.08H433.2V38.46h18.16V33.82H437.53V28.35h13.83V23.79h7.45v4.56h16V38.46h3.73v5.62h-3.73V54.49h-16v4.56h15.8v5.47h-15.8v4.71h19.53v6.16Zm8.81-41.57h-8.81v4.64h8.81Zm0,10.26h-8.81V49h8.81Z"/><path class="cls-1" d="M476.21,171.32A59.9,59.9,0,0,1,448.7,156v18.16h-7.44V156c-5.85,6.31-15.05,12.16-26.37,15.35l-3.95-7.14c11.09-2.28,18.31-5.62,23.32-9.5h-21.5v-6.46h28.5V145h2.58l-3.57-3.64c-3.19.83-15,2.81-26.9,4.4l-2.13-6.46c4.26-.3,9.27-.76,12.54-1.21v-7.9h-9.35v-5.7h2.81l-4.94-4.94a42,42,0,0,0,12.24-13.91l7.07,1.52c-.54,1-1.07,2-1.6,2.89h16.56v5.24a35.38,35.38,0,0,0,5.85-9.42L459.8,107c-.46,1.07-.91,2.13-1.45,3.12h19.76v5.78H467.85c1.14,1.59,2.51,3.72,2.51,3.72l-6.53,3.11a41.8,41.8,0,0,0-3.5-6.83h-5.47a87.81,87.81,0,0,1-5.24,7.06H469.3v13.3c0,2.51.53,2.58,2.12,2.58,1.22,0,1.6-.15,1.6-8l6.31,3.19c0,10.49-3.58,11.17-6.77,11.17h-3.64c-3.8,0-6.69-1.29-6.69-5.62l-4.56,4.33a19.65,19.65,0,0,0-5.55-7.22,16.79,16.79,0,0,1-6.76,8.43h3.34v3.27h28.8v6.46H456c5.16,3.65,13,7.37,23.25,9.42ZM440.57,139.4c5.25-3.34,5.47-7.22,5.47-12.46v-4h2.43l-4.93-4.33a21.92,21.92,0,0,0,2.65-2.73h-8c1.21,1.82,3,4.25,3,4.25L435,123.44a77,77,0,0,0-4-7.59h-5.09a63.18,63.18,0,0,1-7.9,8.66h22v5.7h-8.81V137c5-.61,9.57-1.6,9.57-1.6Zm21.66-10.64h-9v1.75a19,19,0,0,1-.77,5l3.8-3.2a19.94,19.94,0,0,1,6,6.84Z"/><path class="cls-1" d="M425.25,246.67c23.33-2,37.07-14.13,40.44-29.17-12,0-40,.23-50.72.62V209.9c9.13.23,21.25.46,32.53.46,8.91,0,17.27-.15,23.26-.46l5.6,4.15c-7,22.1-18.73,36.3-45.43,40.6Zm43.21-46.9c-5.3-.23-14.12-.3-23-.3s-17.8.07-23.48.3V192.1c4.83.15,12,.23,19.34.23,10.13,0,20.87-.16,27.17-.31Z"/><path class="cls-1" d="M443.85,330.42c.15-9.05.38-19.31.38-28.88,0-2.81-.08-5.55-.08-8.13a261.24,261.24,0,0,1-26.67,15.5L411.4,302c19.22-8.21,44.38-24.24,53.72-38.23l7.68,5.32a142.8,142.8,0,0,1-20,18.09c-.3,6.76-.45,14.28-.45,22,0,7.14.15,14.44.45,21.28Z"/><path class="cls-1" d="M414.74,405.49c14.36-3.27,26.14-9,34.95-17.1a87.5,87.5,0,0,0-15.35-10.71l5.32-5.24a126.12,126.12,0,0,1,15.88,9.87,57.43,57.43,0,0,0,10.18-18.69c-6.3,0-17.4,0-27.05.15a96.63,96.63,0,0,1-17.78,18.09l-6.84-5.47c14.13-9.5,21.28-20.14,25.69-30.25l8.51,2.13c-1.52,2.81-3,5.55-4.71,8.21h7.9c6.68,0,13.83-.08,20.59-.38l4.1,3.87c-11.55,30.32-25.07,43.16-55.24,52.51Z"/><path class="cls-1" d="M440.72,482.74c.16-4.86.23-15.52.23-26.53,0-12.65-.07-25.58-.23-30.37h8.36c-.15,6-.3,17.1-.3,28.25s.15,22.36.3,28.65Z"/><path class="cls-1" d="M439,514.83a6.33,6.33,0,1,1,6.33,6.33A6.35,6.35,0,0,1,439,514.83Z"/><path class="cls-1" d="M421,613.13v-28c-4.11.3-9.05.38-9.05.38l-1-6.84s1.52.07,3,.07a68.53,68.53,0,0,0,7.9-10,96.47,96.47,0,0,0-10.94-7.52l3.72-6.61a26.19,26.19,0,0,1,2.2,1.59,44.55,44.55,0,0,0,5.78-11.47l6.91,2.51A62.72,62.72,0,0,1,422,560c1.07.84,3,2.59,3.8,3.35,2.66-3.88,4.49-7.22,4.49-7.22l6.46,3.65a141.13,141.13,0,0,1-14.59,18.92c2.5-.08,4.4-.23,7.14-.54a22.07,22.07,0,0,0-1.44-3.64l5.39-2.13c3.19,7.67,4.94,13.68,4.94,13.68L432,587.75s-.3-1.44-.83-3.57c-.91.15-2.2.3-3.42.38v28.57Zm-10-4a123.86,123.86,0,0,0,2-19.76l5.54.76v.3a140.15,140.15,0,0,1-1.36,19.84Zm56.39.38h-4.94v-11.1h-4v12.69h-5V598.46h-3.72v14.67H444V589.65c-.45,4.71-1.6,14.21-4.63,22l-6-5.4a29.43,29.43,0,0,0,2.06-5.09l-4,1.37a70,70,0,0,0-1.82-12.08l5.32-1.22c.23,1.07.46,2.21.68,3.19.38,2.13.69,4,.91,4.94,1.83-7.52,2.36-17,2.36-24V558h37.76v17H446.12c0,1-.08,3.35-.23,4.79h32.37v24c0,7.68-2.43,8.51-9.27,9.35Zm-31-56v-5.92h42.94v5.92Zm33.67,10H446.12v5.78h23.94Zm-16.65,21.74h-3.72v8h3.72Zm9,0h-4v8h4Zm9.65,0h-4.64v8h4.64Zm0,13.14h-4.64v8.36c4.1,0,4.64-.53,4.64-2.51Z"/><path class="cls-1" d="M464,778.84V776.2H431.24v2.64h-7.52V753.26c-5.89,2.4-10.46,4.11-10.46,4.11l-3.88-7.21s16.74-3.49,31.55-11.55H411.4v-6.74H439v-7.6H419.85V717.6H439v-8.52h7.52v8.52h15.58v4.65a62.45,62.45,0,0,0,7.6-9l6.82,3.72a111.19,111.19,0,0,1-15.35,14.89h16.51v6.74H452.94A126,126,0,0,1,441.63,745h29.84v33.8Zm0-27.6H431.24v6.13H464Zm0,12.17H431.24V770H464Zm-17.44-39.14v7.6h3.72a93.42,93.42,0,0,0,9.77-7.6Z"/><path class="cls-1" d="M457.86,678.51H477v-6.46H450.19V667.8h22v-5.62H450.18v-4.41h22.05v-5.09H450.18v-4h22.05v-5.09H450.18v-3.72H477v-5.63H451.47a29.54,29.54,0,0,0,2.74-4.18l-7.53-2.2a27.4,27.4,0,0,1-3.34,6.38H429.89a35.43,35.43,0,0,0,3.12-4.48l-7.45-1.9a49.89,49.89,0,0,1-16.64,18.39l3.11,7.52a52.09,52.09,0,0,0,6.23-6.08V667.8h24.48v4.25h-28.5v6.46h21.13a53.69,53.69,0,0,1-22.95,8.67l4.26,7.06c11.17-2.5,19.83-7.52,26.06-13.75v16.79h7.45V680.41c6.38,5.7,15.65,10.94,27.5,13.76l3-7.07C470.4,685.43,461.89,681.32,457.86,678.51Zm-15.13-16.33h-17v-4.41h17Zm0-9.5h-17v-4h17Zm0-9.12h-17v-3.72h17Z"/><rect class="cls-2" width="501.05" height="1239.41"/></svg>